<?xml version="1.0" encoding="utf-8"?>
<!-- Generator: Adobe Illustrator 24.1.2, SVG Export Plug-In . SVG Version: 6.00 Build 0)  -->
<svg version="1.1" id="Layer_1" xmlns="http://www.w3.org/2000/svg" xmlns:xlink="http://www.w3.org/1999/xlink" x="0px" y="0px"
	 viewBox="0 0 708.66 708.66" style="enable-background:new 0 0 708.66 708.66;" xml:space="preserve">
<style type="text/css">
	.st0{fill:#3C3C3B;}
</style>
<g>
	<polygon class="st0" points="426.71,331.2 303.19,254.01 303.19,416.14 	"/>
	<path class="st0" d="M451.02,437.04c27.73-26.72,45.03-64.19,45.03-105.65c0-80.95-65.86-146.81-146.81-146.81
		c-80.95,0-146.81,65.86-146.81,146.81c0,79.42,63.4,144.26,142.24,146.69v22.95c0,34.12,22.74,57.04,56.59,57.04h19.16
		c23.65,0,42.9-19.24,42.9-42.89v-65.41C463.33,442.89,457.85,437.3,451.02,437.04z M420.43,548.95h-19.16
		c-28.83,0-47.47-18.81-47.47-47.91v-35.42c7.28,1.49,12.78,7.94,12.78,15.65v19.58c0,2.52,2.04,4.56,4.56,4.56
		c2.52,0,4.56-2.04,4.56-4.56V396.08c0-3.52,2.87-6.39,6.39-6.39c3.52,0,6.38,2.87,6.38,6.39l0,69.16c0,2.52,2.04,4.56,4.56,4.56
		s4.56-2.04,4.56-4.56v-29.16c0,0,0-0.01,0-0.01c0.01-1.97,1.67-3.64,3.65-3.64h5.48c2.02,0,3.66,1.64,3.66,3.65v29.16
		c0,2.52,2.04,4.56,4.56,4.56s4.56-2.04,4.56-4.56v-23.68c0-2.02,1.64-3.66,3.65-3.66h5.48c1.98,0,3.65,1.67,3.65,3.66v23.68
		c0,2.52,2.04,4.56,4.56,4.56c2.52,0,4.56-2.04,4.56-4.56v-15.47c0-2.01,1.64-3.65,3.65-3.65h5.47c2.01,0,3.65,1.64,3.65,3.65v65.41
		C454.21,533.8,439.06,548.95,420.43,548.95z M213.09,331.4c0-75.08,61.08-136.16,136.16-136.16S485.4,256.32,485.4,331.4
		c0,40.81-18.07,77.46-46.61,102.43c-2.34-3.06-6-5.06-10.14-5.06h-5.48c-1.87,0-3.65,0.4-5.25,1.13c-2.18-3.93-6.38-6.6-11.19-6.6
		h-5.48c-1.27,0-2.49,0.19-3.65,0.53v-27.76c0-8.56-6.96-15.52-15.51-15.52c-8.56,0-15.52,6.96-15.52,15.52v65.84
		c-4.34-3.59-9.91-5.75-15.97-5.75h-5.93v11.27C271.71,465.02,213.09,404.94,213.09,331.4z"/>
</g>
</svg>
