<?xml version="1.0" encoding="utf-8"?>
<!-- Generator: Adobe Illustrator 24.1.2, SVG Export Plug-In . SVG Version: 6.00 Build 0)  -->
<svg version="1.1" id="Layer_1" xmlns="http://www.w3.org/2000/svg" xmlns:xlink="http://www.w3.org/1999/xlink" x="0px" y="0px"
	 viewBox="0 0 708.66 708.66" style="enable-background:new 0 0 708.66 708.66;" xml:space="preserve">
<style type="text/css">
	.st0{fill:none;stroke:#292E34;stroke-width:8.5;}
</style>
<g>
	<g>
		<line class="st0" x1="245.7" y1="225.59" x2="220.63" y2="200.52"/>
		<line class="st0" x1="222.52" y1="256.96" x2="191.82" y2="239.23"/>
		<line class="st0" x1="208.25" y1="293.26" x2="174.01" y2="284.08"/>
		<line class="st0" x1="496.84" y1="288.01" x2="531.07" y2="278.84"/>
		<line class="st0" x1="481.26" y1="252.25" x2="511.95" y2="234.53"/>
		<line class="st0" x1="456.96" y1="221.75" x2="482.01" y2="196.68"/>
	</g>
	<g>
		<g>
			<path class="st0" d="M308.74,321.28h83.7c0.58-7.92,2.36-18.21,7.35-24.84c30.88-39.77,32.86-77.66,32.86-80.33
				c0-45.3-36.69-81.98-81.99-81.98s-81.98,36.68-81.98,81.98c0,2.68,1.92,40.54,32.84,80.33
				C306.49,303.07,308.21,313.36,308.74,321.28z"/>
			<g>
				<line class="st0" x1="333.08" y1="321.05" x2="319.98" y2="230.95"/>
				<line class="st0" x1="368.25" y1="321.06" x2="381.33" y2="230.95"/>
			</g>
			<polyline class="st0" points="320.39,235.6 330.46,244.01 340.55,235.6 350.63,244.01 360.72,235.6 370.82,244.01 380.92,235.6 
							"/>
			<g>
				<line class="st0" x1="303.32" y1="322.24" x2="398" y2="322.24"/>
				<line class="st0" x1="303.32" y1="347.16" x2="398" y2="347.16"/>
				<line class="st0" x1="319.7" y1="372.08" x2="381.62" y2="372.08"/>
				<line class="st0" x1="326.53" y1="345.1" x2="326.53" y2="323.35"/>
			</g>
		</g>
	</g>
	<g>
		<g>
			<polyline class="st0" points="214.59,327.42 214.59,322.27 262.26,295.91 			"/>
			<polyline class="st0" points="486.83,327.42 486.83,322.27 439.15,295.91 			"/>
			<line class="st0" x1="209.25" y1="490.78" x2="209.25" y2="419.8"/>
			<line class="st0" x1="209.25" y1="328.77" x2="350.57" y2="409.76"/>
			<polyline class="st0" points="491.86,417.97 491.86,491.93 350.57,573.51 209.25,491.93 209.25,440.99 209.25,421.11 			"/>
			<line class="st0" x1="491.86" y1="491.93" x2="350.57" y2="573.51"/>
			<polygon class="st0" points="350.57,411.51 491.86,328.77 528.94,397.51 387.65,479.1 			"/>
			<polygon class="st0" points="350.76,411.65 209.46,328.91 172.37,397.67 313.68,479.25 			"/>
		</g>
		<line class="st0" x1="350.66" y1="572.3" x2="350.66" y2="408.41"/>
	</g>
</g>
</svg>
