<?xml version="1.0" encoding="utf-8"?>
<!-- Generator: Adobe Illustrator 24.1.2, SVG Export Plug-In . SVG Version: 6.00 Build 0)  -->
<svg version="1.1" id="Layer_1" xmlns="http://www.w3.org/2000/svg" xmlns:xlink="http://www.w3.org/1999/xlink" x="0px" y="0px"
	 viewBox="0 0 800 800" style="enable-background:new 0 0 800 800;" xml:space="preserve">
<style type="text/css">
	.st0{fill:none;stroke:#282D33;stroke-width:8.504;}
</style>
<g>
	<g>
		<path class="st0" d="M558.28,368.56l0-21.18l-38.01-3.17c-2.66-13.99-7.81-27.1-14.99-38.83l25.39-30l-30.23-30.23l-29.1,24.63
			c-11.41-7.75-24.26-13.51-38.06-16.84L430,213.75h-42.76l-3.17,38.01c-13.99,2.66-27.1,7.8-38.83,14.99l-30-25.39l-30.24,30.23
			l24.63,29.11c-7.75,11.4-13.52,24.25-16.84,38.06l-39.17,3.27l-0.01,21.18"/>
		<path class="st0" d="M358.53,366.08c0-26.19,21.23-47.42,47.42-47.42c26.19,0,47.42,21.23,47.42,47.42"/>
	</g>
	<g>
		<line class="st0" x1="240.93" y1="432.95" x2="568.82" y2="432.95"/>
		<line class="st0" x1="221.51" y1="432.95" x2="202.1" y2="432.95"/>
		<line class="st0" x1="609.81" y1="432.95" x2="590.39" y2="432.95"/>
		<line class="st0" x1="281.91" y1="409.22" x2="281.91" y2="456.68"/>
		<line class="st0" x1="240.93" y1="509.53" x2="568.82" y2="509.53"/>
		<line class="st0" x1="221.51" y1="509.53" x2="202.1" y2="509.53"/>
		<line class="st0" x1="609.81" y1="509.53" x2="590.39" y2="509.53"/>
		<line class="st0" x1="507.34" y1="485.8" x2="507.34" y2="533.26"/>
		<line class="st0" x1="240.93" y1="586.11" x2="568.82" y2="586.11"/>
		<line class="st0" x1="221.51" y1="586.11" x2="202.1" y2="586.11"/>
		<line class="st0" x1="609.81" y1="586.11" x2="590.39" y2="586.11"/>
		<line class="st0" x1="376.83" y1="562.38" x2="376.83" y2="609.84"/>
	</g>
</g>
</svg>
