<?xml version="1.0" encoding="utf-8"?>
<!-- Generator: Adobe Illustrator 24.1.2, SVG Export Plug-In . SVG Version: 6.00 Build 0)  -->
<svg version="1.1" id="Layer_1" xmlns="http://www.w3.org/2000/svg" xmlns:xlink="http://www.w3.org/1999/xlink" x="0px" y="0px"
	 viewBox="0 0 708.66 708.66" style="enable-background:new 0 0 708.66 708.66;" xml:space="preserve">
<style type="text/css">
	.st0{fill:none;stroke:#292E34;stroke-width:8.504;}
</style>
<g>
	<path class="st0" d="M425.86,241.23h76.72c6.21,0,11.25,5.04,11.25,11.25v208.88"/>
	<path class="st0" d="M184.44,461.36V252.49c0-6.21,5.05-11.25,11.25-11.25h73.49"/>
	<polyline class="st0" points="254.28,267.18 211.39,267.18 211.39,433.1 486.88,433.1 486.88,267.18 444.74,267.18 	"/>
	<path class="st0" d="M135.37,460.32v20.2c0,0,14.77,11.04,25.63,11.04h136.02h104.22h136.02c10.86,0,25.64-11.04,25.64-11.04v-20.2
		H135.37z"/>
	<g>
		<g>
			<path class="st0" d="M309.32,348.39h79.5c0.55-7.52,2.25-17.3,6.98-23.59c29.34-37.78,31.21-73.77,31.21-76.31
				c0-43.03-34.85-77.88-77.87-77.88c-43.03,0-77.88,34.85-77.88,77.88c0,2.54,1.83,38.51,31.2,76.31
				C307.18,331.09,308.81,340.88,309.32,348.39z"/>
			<g>
				<line class="st0" x1="333" y1="348.18" x2="321" y2="262.6"/>
				<line class="st0" x1="365.27" y1="348.18" x2="377.28" y2="262.6"/>
			</g>
			<polyline class="st0" points="321.37,267.01 330.61,275 339.86,267.01 349.11,275 358.37,267.01 367.64,275 376.91,267.01 			"/>
			<g>
				<line class="st0" x1="302.1" y1="373.95" x2="396.17" y2="373.95"/>
				<line class="st0" x1="319.73" y1="398.64" x2="378.54" y2="398.64"/>
				<line class="st0" x1="326.22" y1="371.91" x2="326.22" y2="350.36"/>
			</g>
		</g>
	</g>
</g>
</svg>
