<?xml version="1.0" encoding="utf-8"?>
<!-- Generator: Adobe Illustrator 24.1.2, SVG Export Plug-In . SVG Version: 6.00 Build 0)  -->
<svg version="1.1" id="Layer_1" xmlns="http://www.w3.org/2000/svg" xmlns:xlink="http://www.w3.org/1999/xlink" x="0px" y="0px"
	 viewBox="0 0 708.66 708.66" style="enable-background:new 0 0 708.66 708.66;" xml:space="preserve">
<style type="text/css">
	.st0{fill:none;stroke:#404040;stroke-width:8.5039;stroke-miterlimit:10;}
	.st1{fill:none;stroke:#404040;stroke-width:7.0866;stroke-miterlimit:10;}
</style>
<g>
	<path class="st0" d="M203.75,326.57c0.88-0.08,1.75-0.21,2.61-0.38l286.63-25.08c0.87,0.02,1.75,0,2.63-0.08
		c20.75-1.82,35.24-30.07,32.35-63.1c-2.89-33-22.01-58.28-42.74-56.53l-0.01-0.16l-291.87,25.54l0.01,0.16c-0.02,0-0.05,0-0.07,0
		c-20.75,1.82-35.24,30.07-32.35,63.1C163.83,303.08,183,328.39,203.75,326.57z M195.52,230.96c12.39-1.08,23.84,14.03,25.57,33.76
		c1.73,19.73-6.92,36.6-19.32,37.68c-12.39,1.09-23.84-14.03-25.57-33.76C174.48,248.91,183.13,232.04,195.52,230.96z"/>
	<path class="st1" d="M496.8,313.73l-0.01-0.12l-23.48,2.05c13.28,16,19.66,34.15,19.49,55.33c-0.16,19.69-5.88,39.73-11.42,59.11
		c-0.53,1.85-1.06,3.7-1.58,5.54l24.75-2.17c0.87-0.08,1.75-0.02,2.63-0.1c20.75-1.82,35.24-30.08,32.35-63.11
		C536.66,337.27,517.53,311.98,496.8,313.73z"/>
	<path class="st1" d="M278.63,443.26c10.83-37.92,21.06-73.73-8.37-105.93l-3.3-3.61l-62.04,5.43l0.01,0.12
		c-0.02,0-0.05,0-0.07,0.01c-20.76,1.82-35.24,30.07-32.35,63.1c2.89,33.03,22.06,58.36,42.81,56.54c0.88-0.08,1.74-0.28,2.61-0.36
		l57.79-5.06C276.68,450.07,277.66,446.65,278.63,443.26z M213.35,434.72c-12.4,1.08-23.84-14.03-25.57-33.76
		c-1.72-19.73,6.92-36.6,19.32-37.68c12.4-1.08,23.84,14.03,25.57,33.76C234.39,416.77,225.75,433.64,213.35,434.72z"/>
	<path class="st0" d="M465.45,316.35c-63.49,5.56-126.99,11.11-190.48,16.67c63.68,69.67-44.08,154.33,19.6,223.99
		c63.49-5.55,126.99-11.11,190.48-16.67C421.37,470.68,529.13,386.02,465.45,316.35z M299.29,540.78
		c-35.54-61.58,37.9-132.7,2.36-194.28c53.03-4.64,106.06-9.28,159.09-13.92c35.54,61.58-37.9,132.7-2.36,194.28
		C405.34,531.5,352.32,536.14,299.29,540.78z"/>
	<path class="st0" d="M310.07,458.19c40.16-3.51,80.32-7.03,120.48-10.54c1.39-5.25,2.9-10.51,4.4-15.77
		c-40.16,3.51-80.32,7.03-120.48,10.54C312.96,447.67,311.46,452.94,310.07,458.19z"/>
	<path class="st0" d="M325.32,403.87c40.16-3.51,83.65-4,123.81-7.51l4.72-15.98c-40.16,3.51-85.05,4.41-125.21,7.92L325.32,403.87z
		"/>
	<path class="st0" d="M303.69,509.19c40.16-3.51,80.32-7.03,120.48-10.54c-0.49-5.09-0.51-10.22-0.17-15.37
		c-40.16,3.51-80.32,7.03-120.48,10.54C303.18,498.97,303.2,504.1,303.69,509.19z"/>
</g>
</svg>
