<?xml version="1.0" encoding="utf-8"?>
<!-- Generator: Adobe Illustrator 24.1.2, SVG Export Plug-In . SVG Version: 6.00 Build 0)  -->
<svg version="1.1" id="Layer_1" xmlns="http://www.w3.org/2000/svg" xmlns:xlink="http://www.w3.org/1999/xlink" x="0px" y="0px"
	 viewBox="0 0 800 800" style="enable-background:new 0 0 800 800;" xml:space="preserve">
<style type="text/css">
	.st0{clip-path:url(#SVGID_2_);}
	.st1{fill:#3C3C3B;}
	.st2{fill:#475059;}
</style>
<g>
	<defs>
		<polygon id="SVGID_1_" points="640,643.58 159.21,666.58 159.21,185 640.79,185 		"/>
	</defs>
	<clipPath id="SVGID_2_">
		<use xlink:href="#SVGID_1_"  style="overflow:visible;"/>
	</clipPath>
	<g class="st0">
		<path class="st1" d="M507.17,292.89c2.09-12.06-0.65-24.21-7.7-34.21c-14.56-20.65-43.2-25.6-63.85-11.05
			c-9.61,6.77-16.78,16.2-20.74,27.27l-12.53,35.02l-12.53-35.02c-3.96-11.07-11.13-20.5-20.74-27.27
			c-20.65-14.56-49.29-9.6-63.85,11.05c-7.05,10-9.79,22.15-7.7,34.21c2.03,11.73,8.41,21.98,17.96,29.02h-89.07v71.73h11.04V592.3
			h143.47h44.15h143.47V393.64h11.04v-71.73h-90.37C498.76,314.87,505.14,304.62,507.17,292.89z M425.28,278.62
			c3.19-8.92,8.97-16.51,16.71-21.97c15.68-11.05,37.42-7.29,48.47,8.39c5.35,7.59,7.43,16.82,5.84,25.97
			c-1.58,9.15-6.64,17.14-14.23,22.5c-7.74,5.46-16.84,8.35-26.31,8.36l-45.97,0.04L425.28,278.62z M410.6,332.95L410.6,332.95
			l15.17-0.01v49.66h-44.83v-49.66h13.18l0,0.01l8.24-0.01L410.6,332.95z M308.41,291.01c-1.58-9.16,0.49-18.38,5.84-25.97
			c6.77-9.6,17.54-14.73,28.48-14.73c6.92,0,13.92,2.06,19.99,6.34c7.74,5.46,13.52,13.05,16.71,21.97l15.49,43.29l-45.97-0.04
			c-9.47-0.01-18.57-2.9-26.31-8.36C315.05,308.15,309.99,300.16,308.41,291.01z M237.46,332.95h132.44v49.66H237.46V332.95z
			 M557.51,581.26H425.07v-154.4h-11.04v154.4h-22.07V426.55h-11.04v154.71H248.49V393.64h309.02V581.26z M568.55,332.95v49.66
			H436.8v-49.66H568.55z"/>
		<rect x="529.92" y="404.79" class="st2" width="11.04" height="11.04"/>
		<rect x="485.77" y="404.79" class="st2" width="11.04" height="11.04"/>
		<rect x="507.85" y="404.79" class="st2" width="11.04" height="11.04"/>
		<rect x="265.05" y="404.79" class="st2" width="11.04" height="11.04"/>
		<rect x="463.7" y="404.79" class="st2" width="11.04" height="11.04"/>
		<rect x="353.34" y="404.79" class="st2" width="11.04" height="11.04"/>
		<rect x="331.27" y="404.79" class="st2" width="11.04" height="11.04"/>
		<rect x="309.19" y="404.79" class="st2" width="11.04" height="11.04"/>
		<rect x="375.41" y="404.79" class="st2" width="11.04" height="11.04"/>
		<rect x="287.12" y="404.79" class="st2" width="11.04" height="11.04"/>
		<rect x="441.63" y="404.79" class="st2" width="11.04" height="11.04"/>
		<rect x="419.56" y="404.79" class="st2" width="11.04" height="11.04"/>
		<rect x="397.48" y="404.79" class="st2" width="11.04" height="11.04"/>
	</g>
</g>
</svg>
