<?xml version="1.0" encoding="utf-8"?>
<!-- Generator: Adobe Illustrator 24.1.2, SVG Export Plug-In . SVG Version: 6.00 Build 0)  -->
<svg version="1.1" id="Layer_1" xmlns="http://www.w3.org/2000/svg" xmlns:xlink="http://www.w3.org/1999/xlink" x="0px" y="0px"
	 viewBox="0 0 708.66 708.66" style="enable-background:new 0 0 708.66 708.66;" xml:space="preserve">
<style type="text/css">
	.st0{fill:#2E3D3E;}
</style>
<g>
	<g>
		<g>
			<polygon class="st0" points="426.01,411.4 232.53,411.4 232.53,309.57 242.72,309.57 242.72,401.21 415.83,401.21 415.83,309.57 
				426.01,309.57 			"/>
		</g>
		<g>
			<path class="st0" d="M385.28,309.57c-33.69,0-61.1-27.41-61.1-61.1s27.41-61.1,61.1-61.1s61.1,27.41,61.1,61.1
				S418.97,309.57,385.28,309.57z M385.28,197.55c-28.08,0-50.91,22.84-50.91,50.91s22.84,50.91,50.91,50.91
				c28.08,0,50.91-22.84,50.91-50.91S413.35,197.55,385.28,197.55z"/>
		</g>
		<g>
			<path class="st0" d="M273.27,309.57c-33.69,0-61.1-27.41-61.1-61.1s27.41-61.1,61.1-61.1s61.1,27.41,61.1,61.1
				S306.96,309.57,273.27,309.57z M273.27,197.55c-28.08,0-50.91,22.84-50.91,50.91s22.84,50.91,50.91,50.91
				s50.91-22.84,50.91-50.91S301.34,197.55,273.27,197.55z"/>
		</g>
		<g>
			<polygon class="st0" points="446.38,380.85 420.92,380.85 420.92,370.66 436.19,370.66 436.19,304.48 446.38,304.48 			"/>
		</g>
		<g>
			<path class="st0" d="M522.75,411.4c-0.6,0-1.21-0.1-1.79-0.32l-81.46-30.55c-1.99-0.75-3.3-2.64-3.3-4.77v-71.28
				c0-2.12,1.32-4.02,3.3-4.77l81.46-30.55c1.57-0.59,3.31-0.36,4.69,0.58c1.37,0.95,2.19,2.52,2.19,4.19V406.3
				c0,1.67-0.82,3.23-2.19,4.19C524.78,411.09,523.77,411.4,522.75,411.4z M446.38,372.23l71.28,26.73V281.28l-71.28,26.73V372.23z"
				/>
		</g>
		<g>
			<path class="st0" d="M237.63,370.66h-20.37c-2.81,0-5.09-2.28-5.09-5.09v-23.35l-8.69-8.69c-0.95-0.95-1.49-2.25-1.49-3.6v-15.27
				c0-2.81,2.28-5.09,5.09-5.09h30.55c2.81,0,5.09,2.28,5.09,5.09v50.91C242.72,368.39,240.44,370.66,237.63,370.66z M222.35,360.48
				h10.18v-40.73h-20.37v8.07l8.69,8.69c0.95,0.95,1.49,2.25,1.49,3.6V360.48z"/>
		</g>
		<g>
			<path class="st0" d="M273.27,268.83c-11.23,0-20.37-9.13-20.37-20.37c0-11.23,9.14-20.37,20.37-20.37s20.37,9.13,20.37,20.37
				C293.63,259.7,284.5,268.83,273.27,268.83z M273.27,238.29c-5.62,0-10.18,4.57-10.18,10.18c0,5.61,4.57,10.18,10.18,10.18
				s10.18-4.57,10.18-10.18C283.45,242.86,278.88,238.29,273.27,238.29z"/>
		</g>
		<g>
			<path class="st0" d="M385.28,268.83c-11.23,0-20.37-9.13-20.37-20.37c0-11.23,9.14-20.37,20.37-20.37
				c11.23,0,20.37,9.13,20.37,20.37C405.64,259.7,396.51,268.83,385.28,268.83z M385.28,238.29c-5.62,0-10.18,4.57-10.18,10.18
				c0,5.61,4.57,10.18,10.18,10.18c5.62,0,10.18-4.57,10.18-10.18C395.46,242.86,390.89,238.29,385.28,238.29z"/>
		</g>
		<g>
			<path class="st0" d="M349.64,431.76h-40.73c-2.81,0-5.09-2.28-5.09-5.09V406.3c0-2.81,2.28-5.09,5.09-5.09h40.73
				c2.81,0,5.09,2.28,5.09,5.09v20.37C354.73,429.48,352.45,431.76,349.64,431.76z M314,421.58h30.55V411.4H314V421.58z"/>
		</g>
		<g>
			<path class="st0" d="M400.55,508.13h-10.18v-9.14l-28.81-67.23h-64.57l-28.81,67.23v9.14h-10.18v-10.18c0-0.69,0.14-1.37,0.41-2
				l30.55-71.28c0.8-1.87,2.64-3.09,4.68-3.09h71.28c2.04,0,3.88,1.21,4.68,3.09l30.55,71.28c0.27,0.63,0.41,1.31,0.41,2V508.13z"/>
		</g>
		<g>
			<rect x="324.18" y="426.67" class="st0" width="10.18" height="81.46"/>
		</g>
		<g>
			<path class="st0" d="M390.37,350.3h-122.2c-2.81,0-5.09-2.28-5.09-5.09v-20.37c0-2.81,2.28-5.09,5.09-5.09h122.2
				c2.81,0,5.09,2.28,5.09,5.09v20.37C395.46,348.02,393.18,350.3,390.37,350.3z M273.27,340.12h112.01v-10.18H273.27V340.12z"/>
		</g>
		<g>
			<rect x="263.08" y="360.48" class="st0" width="40.73" height="10.18"/>
		</g>
		<g>
			<rect x="385.28" y="360.48" class="st0" width="10.18" height="10.18"/>
		</g>
		<g>
			<rect x="364.91" y="360.48" class="st0" width="10.18" height="10.18"/>
		</g>
		<g>
			<rect x="344.55" y="360.48" class="st0" width="10.18" height="10.18"/>
		</g>
	</g>
</g>
</svg>
