<?xml version="1.0" encoding="utf-8"?>
<!-- Generator: Adobe Illustrator 24.1.2, SVG Export Plug-In . SVG Version: 6.00 Build 0)  -->
<svg version="1.1" id="Layer_1" xmlns="http://www.w3.org/2000/svg" xmlns:xlink="http://www.w3.org/1999/xlink" x="0px" y="0px"
	 viewBox="0 0 708.66 708.66" style="enable-background:new 0 0 708.66 708.66;" xml:space="preserve">
<style type="text/css">
	.st0{fill:none;stroke:#292E34;stroke-width:8.504;stroke-linecap:round;stroke-linejoin:round;}
	.st1{fill:none;stroke:#292E34;stroke-width:8.504;stroke-linecap:round;stroke-linejoin:round;stroke-dasharray:0.9199,7.3591;}
	.st2{fill:none;stroke:#292E34;stroke-width:8.504;stroke-linecap:round;stroke-linejoin:round;stroke-dasharray:0.9898,7.9184;}
	.st3{fill:none;stroke:#292E34;stroke-width:8.504;stroke-linecap:round;stroke-linejoin:round;stroke-dasharray:0.9807,7.8456;}
	.st4{fill:none;stroke:#292E34;stroke-width:8.504;stroke-linecap:round;stroke-linejoin:round;stroke-dasharray:0.9531,7.625;}
	.st5{fill:none;stroke:#292E34;stroke-width:8.504;stroke-linejoin:round;}
</style>
<g>
	<g>
		<line class="st0" x1="484.98" y1="407.41" x2="486.85" y2="408.47"/>
		<line class="st1" x1="514.41" y1="424.22" x2="531.64" y2="434.07"/>
		<polyline class="st0" points="545.42,441.95 547.29,443.02 545.42,444.09 		"/>
		<line class="st2" x1="515.84" y1="461.17" x2="364.25" y2="548.68"/>
		<polyline class="st0" points="349.45,557.22 347.59,558.3 345.72,557.23 		"/>
		<line class="st3" x1="316.34" y1="540.44" x2="165.76" y2="454.37"/>
		<polyline class="st0" points="151.07,445.98 149.2,444.91 151.06,443.83 		"/>
		<line class="st4" x1="179.55" y1="427.38" x2="197.35" y2="417.11"/>
		<line class="st0" x1="211.59" y1="408.88" x2="213.46" y2="407.81"/>
	</g>
	<g>
		<polyline class="st0" points="422.54,247.6 481.92,281.54 347.89,358.92 214.74,282.81 278.66,245.91 		"/>
		<g>
			<polygon class="st5" points="481.92,281.54 483.47,436.2 349.43,513.61 347.89,358.92 			"/>
		</g>
		<g>
			<polygon class="st5" points="347.89,358.92 349.43,513.61 216.27,437.49 214.74,282.81 			"/>
		</g>
	</g>
	<g>
		<polygon class="st0" points="348.92,150.36 419.09,190.47 348.46,231.24 278.3,191.14 		"/>
		<g>
			<polygon class="st5" points="419.09,190.47 419.91,271.97 349.28,312.76 348.46,231.24 			"/>
		</g>
		<g>
			<polygon class="st5" points="348.46,231.24 349.28,312.76 279.1,272.65 278.3,191.14 			"/>
		</g>
	</g>
</g>
</svg>
